<?xml version="1.0" encoding="UTF-8"?>
<!DOCTYPE svg PUBLIC "-//W3C//DTD SVG 1.1//EN" "http://www.w3.org/Graphics/SVG/1.1/DTD/svg11.dtd">
<!-- Creator: CorelDRAW 2020 (64-Bit Evaluation Version) -->
<svg xmlns="http://www.w3.org/2000/svg" xml:space="preserve" width="512px" height="512px" version="1.1" style="shape-rendering:geometricPrecision; text-rendering:geometricPrecision; image-rendering:optimizeQuality; fill-rule:evenodd; clip-rule:evenodd"
viewBox="0 0 512 512"
 xmlns:xlink="http://www.w3.org/1999/xlink">
 <defs>
  <style type="text/css">
   <![CDATA[
    .str0 {stroke:#FEFEFE;stroke-width:25;stroke-miterlimit:22.9256}
    .str1 {stroke:#FEFEFE;stroke-width:0.378;stroke-miterlimit:22.9256}
    .fil0 {fill:none}
    .fil1 {fill:#FEFEFE}
    .fil2 {fill:white}
   ]]>
  </style>
 </defs>
 <g id="Layer_x0020_1">
  <metadata id="CorelCorpID_0Corel-Layer"/>
  <circle class="fil0 str0" cx="256.5" cy="258.5" r="242"/>
  <path class="fil0 str1" d="M488.453 327.729l1.152 -134.467m-466.583 1.348l4.045 141.069"/>
  <path class="fil0 str1" d="M27.067 335.679l-4.045 -141.068c-5.556,20.353 -8.522,41.775 -8.522,63.889 0,26.986 4.417,52.94 12.567,77.179z"/>
  <line class="fil0 str1" x1="109.578" y1="450.813" x2="111.161" y2= "268.657" />
  <polyline class="fil0 str1" points="111.161,268.657 70.523,224.054 68.544,410.949 "/>
  <line class="fil0 str1" x1="448.596" y1="405.704" x2="446.175" y2= "130.885" />
  <polyline class="fil0 str1" points="404.361,450.091 404.546,241.895 296.509,367.773 268.756,336.055 446.175,130.885 "/>
  <path class="fil0 str1" d="M404.546 241.895l-0.185 208.196c16.589,-12.823 31.468,-27.752 44.235,-44.387l-2.421 -274.819 -177.419 205.17 27.753 31.718 108.037 -125.878z"/>
  <line class="fil0 str1" x1="230.101" y1="253.789" x2="256.862" y2= "287.488" />
  <line class="fil0 str1" x1="256.862" y1="287.488" x2="425.444" y2= "85.231" />
  <line class="fil0 str1" x1="230.101" y1="253.789" x2="396.868" y2= "61.345" />
  <path class="fil0 str1" d="M396.868 61.345l-166.767 192.444 26.761 33.699 168.582 -202.257c-8.888,-8.668 -18.442,-16.658 -28.576,-23.886z"/>
  <path class="fil0 str1" d="M396.868 61.345l-166.767 192.444 26.761 33.699 168.582 -202.257c-8.888,-8.668 -18.442,-16.658 -28.576,-23.886z"/>
  <polyline class="fil0 str1" points="111.244,64.923 243.977,208.195 218.207,238.922 82.929,89.865 "/>
  <polyline class="fil0 str1" points="37.453,155.493 257.854,417.331 285.607,381.65 59.837,117.443 "/>
  <path class="fil0 str1" d="M37.453 155.493l220.401 261.838 27.753 -35.681 -225.77 -264.207c-8.564,11.919 -16.071,24.648 -22.384,38.05z"/>
  <path class="fil0 str1" d="M37.453 155.493l220.401 261.838 27.753 -35.681 -225.77 -264.207c-8.564,11.919 -16.071,24.648 -22.384,38.05z"/>
  <path class="fil0 str1" d="M109.578 450.813l1.583 -182.156 -40.638 -44.603 -1.979 186.895c12.056,14.846 25.836,28.235 41.034,39.864z"/>
  <path class="fil0 str1" d="M37.453 155.493l220.401 261.838 27.753 -35.681 -225.769 -264.206c-8.565,11.919 -16.071,24.647 -22.385,38.049z"/>
  <path class="fil0 str1" d="M37.453 155.493l220.401 261.838 27.753 -35.681 -225.769 -264.206c-8.565,11.919 -16.071,24.647 -22.385,38.049z"/>
  <path class="fil0 str1" d="M37.453 155.493l220.401 261.838 27.753 -35.681 -225.769 -264.206c-8.565,11.919 -16.071,24.647 -22.385,38.049z"/>
  <path class="fil0 str1" d="M82.929 89.865l135.278 149.057 25.77 -30.727 -132.733 -143.272c-10.077,7.575 -19.545,15.918 -28.315,24.942z"/>
  <path class="fil0 str1" d="M82.929 89.865l135.278 149.057 25.77 -30.727 -132.733 -143.272c-10.077,7.575 -19.545,15.918 -28.315,24.942z"/>
  <path class="fil0 str1" d="M396.868 61.345l-166.767 192.444 26.761 33.699 168.581 -202.256c-8.887,-8.669 -18.441,-16.658 -28.575,-23.887z"/>
  <path class="fil0 str1" d="M446.175 130.885l-177.419 205.17 27.753 31.718 108.037 -125.878 -0.185 208.196c16.589,-12.823 31.468,-27.752 44.235,-44.387l-2.421 -274.819z"/>
  <path class="fil0 str1" d="M27.067 335.679l-4.045 -141.067c-5.556,20.352 -8.522,41.774 -8.522,63.888 0,26.986 4.417,52.94 12.567,77.179z"/>
  <path class="fil0 str1" d="M489.605 193.262l-1.152 134.466c6.537,-21.932 10.047,-45.17 10.047,-69.228 0,-22.603 -3.099,-44.482 -8.895,-65.238z"/>
  <path class="fil1 str1" d="M448.596 405.704l-2.421 -274.819 -177.419 205.17 27.753 31.718 108.037 -125.878 -0.185 208.196c16.589,-12.823 31.468,-27.752 44.235,-44.387z"/>
  <path class="fil1 str1" d="M70.523 224.054l-1.979 186.895c12.056,14.846 25.836,28.235 41.034,39.864l1.583 -182.156 -40.638 -44.603z"/>
  <path class="fil1 str1" d="M82.929 89.865l135.278 149.057 25.77 -30.727 -132.733 -143.272c-10.077,7.575 -19.545,15.918 -28.315,24.942z"/>
  <path class="fil1 str1" d="M396.868 61.345l-166.767 192.444 26.761 33.699 168.581 -202.256c-8.887,-8.669 -18.441,-16.658 -28.575,-23.887z"/>
  <path class="fil1 str1" d="M27.067 335.679l-4.045 -141.067c-5.556,20.353 -8.522,41.774 -8.522,63.888 0,26.986 4.417,52.94 12.567,77.179z"/>
  <path class="fil1 str1" d="M489.605 193.262l-1.152 134.466c6.537,-21.932 10.047,-45.17 10.047,-69.228 0,-22.603 -3.099,-44.483 -8.895,-65.238z"/>
  <path class="fil1 str1" d="M59.838 117.444c-8.565,11.919 -16.071,24.647 -22.385,38.049l220.401 261.838 27.753 -35.681 -225.769 -264.206z"/>
  <path class="fil1 str1" d="M59.838 117.444c-8.565,11.919 -16.071,24.647 -22.385,38.049l220.401 261.838 27.753 -35.681 -225.769 -264.206z"/>
  <path class="fil2 str1" d="M59.838 117.444c-8.565,11.919 -16.071,24.647 -22.385,38.049l220.401 261.838 27.753 -35.681 -225.769 -264.206z"/>
 </g>
</svg>
