<svg id="Capa_1" enable-background="new 0 0 512 512" height="512" viewBox="0 0 512 512" width="512" xmlns="http://www.w3.org/2000/svg"><g><g><path d="m325.5 450.648c0 8.284-6.716 15-15 15h-288c-8.284 0-15-6.716-15-15v-367h318z" fill="#edebed"/><path d="m325.5 98.65v352c0 8.28-6.72 15-15 15h-30c8.28 0 15-6.72 15-15v-352z" fill="#dbd9dc"/><path d="m325.5 98.648h-318v-40c0-8.284 6.716-15 15-15h288c8.284 0 15 6.716 15 15z" fill="#c3aff0"/><path d="m325.5 58.65v40h-30v-40c0-8.29-6.72-15-15-15h30c8.28 0 15 6.71 15 15z" fill="#a69ded"/><path d="m295.5 430.648c0 2.761-2.239 5-5 5h-248c-2.761 0-5-2.239-5-5v-332h258z" fill="#fff"/><path d="m214 210.648h-141.5c-2.761 0-5-2.239-5-5v-72c0-2.761 2.239-5 5-5h188c2.761 0 5 2.239 5 5v35z" fill="#bde4ff"/><path d="m375.41 360.904h73.055v30h-73.055z" fill="#edebed" transform="matrix(.707 .707 -.707 .707 386.458 -181.184)"/><path d="m225.431 369.224c-49.597-49.597-49.597-130.009 0-179.605 49.597-49.597 130.008-49.597 179.605 0 49.597 49.597 49.597 130.008 0 179.605-49.597 49.596-130.009 49.596-179.605 0z" fill="#ffe07d"/><path d="m442.23 279.42c0 32.5-12.39 65-37.19 89.8s-57.3 37.2-89.8 37.2c-5.01 0-10.02-.29-15-.89 27.33-3.23 53.82-15.33 74.8-36.31 24.8-24.8 37.19-57.3 37.19-89.8s-12.39-65-37.19-89.8c-20.98-20.98-47.47-33.08-74.8-36.31 4.98-.6 9.99-.89 15-.89 32.5 0 65 12.4 89.8 37.2s37.19 57.3 37.19 89.8z" fill="#ffd064"/><path d="m246.644 348.011c-37.881-37.881-37.881-99.298 0-137.179 37.881-37.881 99.298-37.881 137.179 0 37.881 37.881 37.881 99.298 0 137.179-37.881 37.881-99.298 37.881-137.179 0z" fill="#fff"/><path d="m355 326.648h-20c-2.761 0-5-2.239-5-5v-85c0-2.761 2.239-5 5-5h20c2.761 0 5 2.239 5 5v85c0 2.761-2.239 5-5 5z" fill="#fc8d94"/><path d="m295 326.648h-20c-2.761 0-5-2.239-5-5v-45c0-2.761 2.239-5 5-5h20c2.761 0 5 2.239 5 5v45c0 2.761-2.239 5-5 5z" fill="#bde4ff"/><path d="m453.406 459.586-44.444-44.444c-1.948-1.948-1.948-5.107 0-7.055l35.273-35.273c1.948-1.948 5.107-1.948 7.055 0l44.444 44.444c11.689 11.689 11.689 30.639 0 42.328-11.689 11.688-30.64 11.688-42.328 0z" fill="#d19a6e"/><path d="m468.93 390.45-42.33 42.33-17.64-17.64c-1.95-1.95-1.95-5.11 0-7.05l35.27-35.28c1.95-1.95 5.11-1.95 7.06 0z" fill="#ffe07d"/><path d="m495.732 459.583c-3.868 3.868-8.535 6.456-13.456 7.757 2.652-9.977.064-21.051-7.757-28.871l-44.442-44.442c-1.952-1.952-5.105-1.952-7.057 0l21.213-21.213c1.952-1.952 5.105-1.952 7.057 0l44.442 44.442c11.688 11.689 11.688 30.639 0 42.327z" fill="#bc845e"/><path d="m468.925 390.45-21.213 21.213-17.635-17.635c-1.93-1.93-5.042-1.959-6.986-.071l21.135-21.15c1.952-1.952 5.112-1.945 7.064.007z" fill="#ffd064"/></g><g><path d="m501.037 411.962-44.444-44.444c-4.869-4.869-12.792-4.869-17.661 0l-1.784 1.784-12.126-12.125c16.054-22.568 24.713-49.49 24.713-77.746 0-35.927-13.991-69.702-39.395-95.106-21.167-21.166-48.147-34.4-77.339-38.229v-87.439c0-12.406-10.093-22.5-22.5-22.5h-288c-12.407 0-22.5 10.094-22.5 22.5v69.717c0 4.143 3.358 7.5 7.5 7.5s7.5-3.357 7.5-7.5v-22.217h15v324.5c0 6.893 5.607 12.5 12.5 12.5h193c4.142 0 7.5-3.357 7.5-7.5s-3.358-7.5-7.5-7.5h-190.501v-322h243v41.523c-5.088 1.041-10.096 2.367-15 3.982v-18.005c0-6.893-5.607-12.5-12.5-12.5h-188c-6.893 0-12.5 5.607-12.5 12.5v72c0 6.893 5.607 12.5 12.5 12.5h122.999c-25.821 50.546-17.618 114.132 24.629 156.38 18.858 18.858 42.332 31.419 67.872 36.644v16.976h-17.5c-4.142 0-7.5 3.357-7.5 7.5s3.358 7.5 7.5 7.5h20c6.893 0 12.5-5.607 12.5-12.5v-17.281c4.044.362 8.124.554 12.233.554.924 0 1.846-.015 2.767-.034v36.76c0 4.136-3.364 7.5-7.5 7.5h-288c-4.136 0-7.5-3.364-7.5-7.5v-287.282c0-4.143-3.358-7.5-7.5-7.5s-7.5 3.357-7.5 7.5v287.283c0 12.406 10.093 22.5 22.5 22.5h288c12.407 0 22.5-10.094 22.5-22.5v-37.891c21.816-2.861 42.395-10.979 60.236-23.734l12.09 12.09-1.669 1.669c-4.867 4.869-4.867 12.791.001 17.661l44.445 44.444c7.298 7.298 16.881 10.946 26.467 10.945 9.583-.001 19.171-3.649 26.467-10.945 7.07-7.07 10.963-16.47 10.963-26.468s-3.894-19.396-10.963-26.466zm-486.037-353.305c0-4.136 3.364-7.5 7.5-7.5h288c4.136 0 7.5 3.364 7.5 7.5v32.5h-303zm288 47.5h15v38.807c-.921-.018-1.843-.034-2.767-.034-4.11 0-8.189.192-12.233.554zm-99 97h-129v-67h183v21.483c-13.892 6.539-26.693 15.505-37.873 26.684-5.899 5.899-11.128 12.217-15.7 18.855-.142-.008-.282-.022-.427-.022zm26.734 160.773c-46.593-46.593-46.593-122.405 0-168.998 22.57-22.571 52.58-35.001 84.499-35.001 31.92 0 61.929 12.43 84.5 35.001 22.57 22.57 35.001 52.579 35.001 84.499s-12.431 61.929-35.001 84.499c-22.571 22.571-52.58 35.001-84.5 35.001-31.919 0-61.928-12.43-84.499-35.001zm174.27 15.656c1.815-1.631 3.596-3.311 5.335-5.049 1.813-1.813 3.562-3.674 5.258-5.57l10.943 10.942-10.607 10.607zm42.758.314 10.557 10.557-31.721 31.721-10.557-10.557zm42.668 74.39c-8.746 8.747-22.975 8.746-31.721 0l-21.504-21.504 31.721-31.721 21.504 21.505c4.237 4.236 6.57 9.869 6.57 15.86s-2.333 11.624-6.57 15.86z"/><path d="m389.126 205.537c-40.744-40.744-107.041-40.744-147.785 0-40.745 40.745-40.745 107.041 0 147.786 20.372 20.372 47.132 30.558 73.893 30.558s53.521-10.186 73.893-30.558c40.744-40.745 40.744-107.041-.001-147.786zm-10.606 137.179c-34.896 34.896-91.676 34.896-126.572 0s-34.896-91.676 0-126.571c17.448-17.448 40.367-26.173 63.286-26.173s45.838 8.725 63.286 26.173c34.896 34.895 34.896 91.675 0 126.571z"/><path d="m355 224.157h-20c-6.893 0-12.5 5.607-12.5 12.5v85c0 6.893 5.607 12.5 12.5 12.5h20c6.893 0 12.5-5.607 12.5-12.5v-85c0-6.892-5.607-12.5-12.5-12.5zm-2.5 95h-15v-80h15z"/><path d="m295 264.157h-20c-6.893 0-12.5 5.607-12.5 12.5v45c0 6.893 5.607 12.5 12.5 12.5h20c6.893 0 12.5-5.607 12.5-12.5v-45c0-6.892-5.607-12.5-12.5-12.5zm-2.5 55h-15v-40h15z"/><path d="m160.5 300.657c0-4.143-3.358-7.5-7.5-7.5h-85.5c-4.142 0-7.5 3.357-7.5 7.5s3.358 7.5 7.5 7.5h85.5c4.142 0 7.5-3.357 7.5-7.5z"/><path d="m67.5 278.157h85.5c4.142 0 7.5-3.357 7.5-7.5s-3.358-7.5-7.5-7.5h-85.5c-4.142 0-7.5 3.357-7.5 7.5s3.358 7.5 7.5 7.5z"/><path d="m170.5 240.657c0-4.143-3.358-7.5-7.5-7.5h-95.5c-4.142 0-7.5 3.357-7.5 7.5s3.358 7.5 7.5 7.5h95.5c4.142 0 7.5-3.357 7.5-7.5z"/><path d="m60 390.657v15c0 4.143 3.358 7.5 7.5 7.5s7.5-3.357 7.5-7.5v-15c0-4.143-3.358-7.5-7.5-7.5s-7.5 3.358-7.5 7.5z"/><path d="m90 370.657v35c0 4.143 3.358 7.5 7.5 7.5s7.5-3.357 7.5-7.5v-35c0-4.143-3.358-7.5-7.5-7.5s-7.5 3.358-7.5 7.5z"/><path d="m157.5 413.157c4.142 0 7.5-3.357 7.5-7.5v-75c0-4.143-3.358-7.5-7.5-7.5s-7.5 3.357-7.5 7.5v75c0 4.143 3.358 7.5 7.5 7.5z"/><path d="m180 370.657v35c0 4.143 3.358 7.5 7.5 7.5s7.5-3.357 7.5-7.5v-35c0-4.143-3.358-7.5-7.5-7.5s-7.5 3.358-7.5 7.5z"/><path d="m120 350.657v55c0 4.143 3.358 7.5 7.5 7.5s7.5-3.357 7.5-7.5v-55c0-4.143-3.358-7.5-7.5-7.5s-7.5 3.358-7.5 7.5z"/></g></g></svg>