<svg id="filled_outline" height="512" viewBox="0 0 512 512" width="512" xmlns="http://www.w3.org/2000/svg" data-name="filled outline"><path d="m152 176h80v144h-80z" fill="#4976f2"/><path d="m232 128h80v192h-80z" fill="#548aff"/><path d="m312 72h80v248h-80z" fill="#639aff"/><path d="m192 264h272v96h-272z" fill="#02c26a"/><path d="m184 360h304v128h-304z" fill="#00b55b"/><path d="m296 264h64v96h-64z" fill="#e8f2ff"/><path d="m320 360h64v128h-64z" fill="#c8dbf7"/><path d="m344 264a40 40 0 0 0 40-40v-24h72v24a40 40 0 0 1 -40 40z" fill="#00a64f"/><path d="m72 240h80v80h-80z" fill="#486be0"/><path d="m112 296h80a0 0 0 0 1 0 0v96a0 0 0 0 1 0 0h-80a48 48 0 0 1 -48-48 48 48 0 0 1 48-48z" fill="#ffa100"/><circle cx="192" cy="344" fill="#ffb401" r="48"/><path d="m72 392h120a0 0 0 0 1 0 0v96a0 0 0 0 1 0 0h-120a48 48 0 0 1 -48-48 48 48 0 0 1 48-48z" fill="#ffb401"/><circle cx="192" cy="440" fill="#ffc431" r="48"/><path d="m72 496h416a8.00008 8.00008 0 0 0 8-8v-128a8.00008 8.00008 0 0 0 -8-8h-16v-88a8.00008 8.00008 0 0 0 -8-8h-12.26123a47.80135 47.80135 0 0 0 12.26123-32v-24a8.00008 8.00008 0 0 0 -8-8h-56v-120a8.00008 8.00008 0 0 0 -8-8h-80a8.00008 8.00008 0 0 0 -8 8v40h-72a8.00008 8.00008 0 0 0 -8 8v48h-72a8.00008 8.00008 0 0 0 -8 8v56h-72a8.00008 8.00008 0 0 0 -8 8v75.19019a55.8757 55.8757 0 0 0 8.86157 68.80981h-.86157a56 56 0 0 0 0 112zm0-16a39.96261 39.96261 0 0 1 -31.978-16h21.39231a56.2519 56.2519 0 0 0 11.44726 16zm40 0a39.96261 39.96261 0 0 1 -31.978-16h21.39234a56.2519 56.2519 0 0 0 11.44726 16zm-40-40a40.04552 40.04552 0 0 1 40-40h.86157a55.80731 55.80731 0 0 0 -16.281 48h-23.77564a40.037 40.037 0 0 1 -.80493-8zm48.022-72h21.39234a56.2519 56.2519 0 0 0 11.44726 16h-.8616a39.96261 39.96261 0 0 1 -31.978-16zm-48.022-24a40.04552 40.04552 0 0 1 40-40h.86157a55.80731 55.80731 0 0 0 -16.281 48h-23.77564a40.037 40.037 0 0 1 -.80493-8zm216-72v16h-88v-16zm64 0v80h-48v-80zm104 48h-88v-16h88zm-64 112h88v16h-88zm0-16v-16h88v16zm-16 64h-48v-112h48zm-239.41943-32h-23.77564a40.0144 40.0144 0 0 1 39.19507-48h.86157a55.80731 55.80731 0 0 0 -16.281 48zm15.41943-104a40 40 0 1 1 40 40 40.04552 40.04552 0 0 1 -40-40zm95.41943 8a55.40853 55.40853 0 0 0 0-16h40.58057v16zm40.58057-32h-45.41431a56.2519 56.2519 0 0 0 -11.44726-16h56.86157zm-45.41431 48h69.41431v16h-64v16h64v16h-69.41431a56.375 56.375 0 0 0 -21.77588-24 56.375 56.375 0 0 0 21.77588-24zm4.83374 64h64.58057v16h-64.58057a55.40853 55.40853 0 0 0 0-16zm-135.41943-88a40.04552 40.04552 0 0 1 40-40h.86157a55.80731 55.80731 0 0 0 -16.281 48h-23.77564a40.037 40.037 0 0 1 -.80493-8zm40 136a39.96261 39.96261 0 0 1 -31.978-16h21.39234a56.2519 56.2519 0 0 0 11.44726 16zm0-40a40 40 0 1 1 40 40 40.04552 40.04552 0 0 1 -40-40zm90.58569 24h69.41431v16h-80.86157a56.2519 56.2519 0 0 0 11.44726-16zm149.41431 16v-16h88v16zm88-96h-88v-16h88zm-112-32v-16h88v16zm88-64h-88v-16h88zm-8-64a32.03635 32.03635 0 0 1 -32 32h-36.26123a47.80135 47.80135 0 0 0 12.26123-32v-16h56zm-128-144h64v112a8.00008 8.00008 0 0 0 -8 8v24a32.03635 32.03635 0 0 1 -32 32h-24zm-80 48h64v128h-64zm-80 56h64v72h-32a8.00008 8.00008 0 0 0 -8 8v24h-24zm-16 64v40h-32a55.67165 55.67165 0 0 0 -32 10.08325v-50.08325zm-63.978 120h21.39234a56.2519 56.2519 0 0 0 11.44726 16h-.8616a39.96261 39.96261 0 0 1 -31.978-16zm-8.022 32h.86157a55.80731 55.80731 0 0 0 -16.281 48h-23.77564a40.0144 40.0144 0 0 1 39.19507-48z"/><path d="m24 192h16v16h-16z"/><path d="m248 24v40h-64a8.00008 8.00008 0 0 0 -8 8v48h-64a8.00008 8.00008 0 0 0 -8 8v64h-16v16h24a8.00008 8.00008 0 0 0 8-8v-64h64a8.00008 8.00008 0 0 0 8-8v-48h64a8.00008 8.00008 0 0 0 8-8v-40h136v-16h-144a8.00008 8.00008 0 0 0 -8 8z"/><path d="m56 192h16v16h-16z"/><path d="m416 16h16v16h-16z"/><path d="m448 16h16v16h-16z"/></svg>